<?xml version="1.0" encoding="UTF-8" standalone="no"?>
<!DOCTYPE svg PUBLIC "-//W3C//DTD SVG 1.1//EN"
 "http://www.w3.org/Graphics/SVG/1.1/DTD/svg11.dtd">
<!-- Generated by graphviz version 2.38.0 (20140413.2041)
 -->
<!-- Title: %3 Pages: 1 -->
<svg width="318pt" height="424pt"
 viewBox="0.00 0.00 318.00 424.00" xmlns="http://www.w3.org/2000/svg" xmlns:xlink="http://www.w3.org/1999/xlink">
<g id="graph0" class="graph" transform="scale(1 1) rotate(0) translate(4 420)">
<title>%3</title>
<polygon fill="white" stroke="none" points="-4,4 -4,-420 314,-420 314,4 -4,4"/>
<!-- 6042543 -->
<g id="node1" class="node"><title>6042543</title>
<polygon fill="#ffa07a" stroke="#ffa07a" points="90,-403.562 63,-416 36,-403.562 46.3131,-383.438 79.6869,-383.438 90,-403.562"/>
<text text-anchor="middle" x="63" y="-394.3" font-family="Times,serif" font-size="14.00">??</text>
</g>
<!-- 6042543&#45;&gt;6042543 -->
<g id="edge1" class="edge"><title>6042543&#45;&gt;6042543</title>
<path fill="none" stroke="black" d="M78.681,-409.1C92.837,-414.5 108,-410.8 108,-398 108,-389.13 100.71,-384.63 91.526,-384.5"/>
<polygon fill="black" stroke="black" points="90.8867,-381.056 81.49,-385.95 91.8877,-387.984 90.8867,-381.056"/>
</g>
<!-- 618376 -->
<g id="node2" class="node"><title>618376</title>
<ellipse fill="#f0e68c" stroke="#f0e68c" cx="27" cy="-326" rx="27" ry="18"/>
</g>
<!-- 6042543&#45;&gt;618376 -->
<g id="edge2" class="edge"><title>6042543&#45;&gt;618376</title>
<path fill="none" stroke="black" d="M55.888,-383.17C51.369,-374.38 45.385,-362.75 40.035,-352.35"/>
<polygon fill="black" stroke="black" points="43.0465,-350.553 35.361,-343.26 36.8212,-353.754 43.0465,-350.553"/>
</g>
<!-- 3880473 -->
<g id="node3" class="node"><title>3880473</title>
<polygon fill="#afeeee" stroke="#afeeee" points="126,-344 72,-344 72,-308 126,-308 126,-344"/>
<text text-anchor="middle" x="99" y="-322.3" font-family="Times,serif" font-size="14.00">&amp;&amp;</text>
</g>
<!-- 6042543&#45;&gt;3880473 -->
<g id="edge3" class="edge"><title>6042543&#45;&gt;3880473</title>
<path fill="none" stroke="black" d="M70.112,-383.17C74.537,-374.57 80.366,-363.23 85.63,-353"/>
<polygon fill="black" stroke="black" points="88.7872,-354.514 90.247,-344.02 82.5618,-351.313 88.7872,-354.514"/>
</g>
<!-- 1649375 -->
<g id="node4" class="node"><title>1649375</title>
<ellipse fill="#f0e68c" stroke="#f0e68c" cx="62" cy="-249" rx="27" ry="18"/>
<text text-anchor="middle" x="62" y="-245.3" font-family="Times,serif" font-size="14.00">@</text>
</g>
<!-- 3880473&#45;&gt;1649375 -->
<g id="edge4" class="edge"><title>3880473&#45;&gt;1649375</title>
<path fill="none" stroke="black" d="M90.604,-307.98C85.903,-298.45 79.946,-286.38 74.686,-275.72"/>
<polygon fill="black" stroke="black" points="77.671,-273.86 70.108,-266.44 71.3934,-276.957 77.671,-273.86"/>
</g>
<!-- 7347050 -->
<g id="node5" class="node"><title>7347050</title>
<polygon fill="#98fb98" stroke="#98fb98" points="137,-272 107,-237.5 167,-237.5 137,-272"/>
<text text-anchor="middle" x="137" y="-245.3" font-family="Times,serif" font-size="14.00">||</text>
</g>
<!-- 3880473&#45;&gt;7347050 -->
<g id="edge5" class="edge"><title>3880473&#45;&gt;7347050</title>
<path fill="none" stroke="black" d="M107.62,-307.98C112.84,-297.69 119.56,-284.42 125.26,-273.17"/>
<polygon fill="black" stroke="black" points="128.539,-274.442 129.94,-263.94 122.296,-271.276 128.539,-274.442"/>
</g>
<!-- 8027615 -->
<g id="node6" class="node"><title>8027615</title>
<ellipse fill="#f0e68c" stroke="#f0e68c" cx="101" cy="-172" rx="27" ry="18"/>
</g>
<!-- 7347050&#45;&gt;8027615 -->
<g id="edge6" class="edge"><title>7347050&#45;&gt;8027615</title>
<path fill="none" stroke="black" d="M131.84,-237.25C126.99,-227.15 119.55,-211.64 113.19,-198.39"/>
<polygon fill="black" stroke="black" points="116.285,-196.749 108.8,-189.25 109.975,-199.78 116.285,-196.749"/>
</g>
<!-- 8437924 -->
<g id="node7" class="node"><title>8437924</title>
<polygon fill="#afeeee" stroke="#afeeee" points="200,-190 146,-190 146,-154 200,-154 200,-190"/>
<text text-anchor="middle" x="173" y="-168.3" font-family="Times,serif" font-size="14.00">&amp;&amp;</text>
</g>
<!-- 7347050&#45;&gt;8437924 -->
<g id="edge7" class="edge"><title>7347050&#45;&gt;8437924</title>
<path fill="none" stroke="black" d="M142.16,-237.25C146.91,-227.35 154.17,-212.24 160.44,-199.16"/>
<polygon fill="black" stroke="black" points="163.617,-200.63 164.79,-190.1 157.306,-197.6 163.617,-200.63"/>
</g>
<!-- 6266395 -->
<g id="node8" class="node"><title>6266395</title>
<polygon fill="#98fb98" stroke="#98fb98" points="134,-118 104,-83.5 164,-83.5 134,-118"/>
<text text-anchor="middle" x="134" y="-91.3" font-family="Times,serif" font-size="14.00">||</text>
</g>
<!-- 8437924&#45;&gt;6266395 -->
<g id="edge8" class="edge"><title>8437924&#45;&gt;6266395</title>
<path fill="none" stroke="black" d="M164.15,-153.98C158.74,-143.58 151.76,-130.15 145.87,-118.83"/>
<polygon fill="black" stroke="black" points="148.967,-117.199 141.25,-109.94 142.756,-120.427 148.967,-117.199"/>
</g>
<!-- 5222823 -->
<g id="node9" class="node"><title>5222823</title>
<polygon fill="#98fb98" stroke="#98fb98" points="212,-118 182,-83.5 242,-83.5 212,-118"/>
<text text-anchor="middle" x="212" y="-91.3" font-family="Times,serif" font-size="14.00">||</text>
</g>
<!-- 8437924&#45;&gt;5222823 -->
<g id="edge9" class="edge"><title>8437924&#45;&gt;5222823</title>
<path fill="none" stroke="black" d="M181.85,-153.98C187.26,-143.58 194.24,-130.15 200.13,-118.83"/>
<polygon fill="black" stroke="black" points="203.244,-120.427 204.75,-109.94 197.033,-117.199 203.244,-120.427"/>
</g>
<!-- 5703059 -->
<g id="node10" class="node"><title>5703059</title>
<ellipse fill="#f0e68c" stroke="#f0e68c" cx="64" cy="-18" rx="27" ry="18"/>
<text text-anchor="middle" x="64" y="-14.3" font-family="Times,serif" font-size="14.00">a</text>
</g>
<!-- 6266395&#45;&gt;5703059 -->
<g id="edge10" class="edge"><title>6266395&#45;&gt;5703059</title>
<path fill="none" stroke="black" d="M123.97,-83.254C113.7,-72.25 97.443,-54.832 84.445,-40.905"/>
<polygon fill="black" stroke="black" points="86.9992,-38.512 77.617,-33.59 81.882,-43.2885 86.9992,-38.512"/>
</g>
<!-- 359384 -->
<g id="node11" class="node"><title>359384</title>
<ellipse fill="#f0e68c" stroke="#f0e68c" cx="136" cy="-18" rx="27" ry="18"/>
<text text-anchor="middle" x="136" y="-14.3" font-family="Times,serif" font-size="14.00">A</text>
</g>
<!-- 6266395&#45;&gt;359384 -->
<g id="edge11" class="edge"><title>6266395&#45;&gt;359384</title>
<path fill="none" stroke="black" d="M134.29,-83.254C134.54,-73.635 134.93,-59.114 135.27,-46.308"/>
<polygon fill="black" stroke="black" points="138.774,-46.1901 135.54,-36.101 131.777,-46.0049 138.774,-46.1901"/>
</g>
<!-- 7963474 -->
<g id="node12" class="node"><title>7963474</title>
<ellipse fill="#f0e68c" stroke="#f0e68c" cx="211" cy="-18" rx="27" ry="18"/>
<text text-anchor="middle" x="211" y="-14.3" font-family="Times,serif" font-size="14.00">b</text>
</g>
<!-- 5222823&#45;&gt;7963474 -->
<g id="edge12" class="edge"><title>5222823&#45;&gt;7963474</title>
<path fill="none" stroke="black" d="M211.86,-83.254C211.73,-73.635 211.53,-59.114 211.36,-46.308"/>
<polygon fill="black" stroke="black" points="214.857,-46.0556 211.23,-36.101 207.858,-46.1448 214.857,-46.0556"/>
</g>
<!-- 3027091 -->
<g id="node13" class="node"><title>3027091</title>
<ellipse fill="#f0e68c" stroke="#f0e68c" cx="283" cy="-18" rx="27" ry="18"/>
<text text-anchor="middle" x="283" y="-14.3" font-family="Times,serif" font-size="14.00">B</text>
</g>
<!-- 5222823&#45;&gt;3027091 -->
<g id="edge13" class="edge"><title>5222823&#45;&gt;3027091</title>
<path fill="none" stroke="black" d="M222.17,-83.254C232.59,-72.25 249.08,-54.832 262.26,-40.905"/>
<polygon fill="black" stroke="black" points="264.853,-43.2567 269.19,-33.59 259.772,-38.4424 264.853,-43.2567"/>
</g>
</g>
</svg>
